<svg width="55" height="29" viewBox="0 0 55 29" fill="none" xmlns="http://www.w3.org/2000/svg">
<path d="M5.4929 5.78267C5.45881 5.43892 5.3125 5.17187 5.05398 4.98153C4.79545 4.79119 4.4446 4.69602 4.00142 4.69602C3.70028 4.69602 3.44602 4.73864 3.23864 4.82386C3.03125 4.90625 2.87216 5.02131 2.76136 5.16903C2.65341 5.31676 2.59943 5.48438 2.59943 5.67188C2.59375 5.82812 2.62642 5.96449 2.69744 6.08097C2.77131 6.19744 2.87216 6.2983 3 6.38352C3.12784 6.46591 3.27557 6.53835 3.44318 6.60085C3.6108 6.66051 3.78977 6.71165 3.98011 6.75426L4.7642 6.94176C5.14489 7.02699 5.49432 7.14062 5.8125 7.28267C6.13068 7.42472 6.40625 7.59943 6.6392 7.80682C6.87216 8.0142 7.05256 8.25852 7.1804 8.53977C7.31108 8.82102 7.37784 9.14347 7.38068 9.5071C7.37784 10.0412 7.24148 10.5043 6.97159 10.8963C6.70455 11.2855 6.31818 11.5881 5.8125 11.804C5.30966 12.017 4.70313 12.1236 3.9929 12.1236C3.28835 12.1236 2.67472 12.0156 2.15199 11.7997C1.6321 11.5838 1.22585 11.2642 0.933239 10.8409C0.643466 10.4148 0.491477 9.88778 0.477273 9.25994H2.26278C2.28267 9.55256 2.36648 9.79687 2.5142 9.9929C2.66477 10.1861 2.86506 10.3324 3.11506 10.4318C3.3679 10.5284 3.65341 10.5767 3.97159 10.5767C4.28409 10.5767 4.5554 10.5312 4.78551 10.4403C5.01847 10.3494 5.19886 10.223 5.3267 10.0611C5.45455 9.89915 5.51847 9.71307 5.51847 9.50284C5.51847 9.30682 5.46023 9.14205 5.34375 9.00852C5.23011 8.875 5.0625 8.76136 4.84091 8.66761C4.62216 8.57386 4.35369 8.48864 4.03551 8.41193L3.08523 8.1733C2.34943 7.99432 1.76847 7.71449 1.34233 7.33381C0.916193 6.95312 0.704545 6.44034 0.707386 5.79545C0.704545 5.26705 0.84517 4.8054 1.12926 4.41051C1.41619 4.01562 1.80966 3.70739 2.30966 3.4858C2.80966 3.2642 3.37784 3.15341 4.0142 3.15341C4.66193 3.15341 5.22727 3.2642 5.71023 3.4858C6.19602 3.70739 6.57386 4.01562 6.84375 4.41051C7.11364 4.8054 7.25284 5.26278 7.26136 5.78267H5.4929ZM11.5451 12.1278C10.8832 12.1278 10.3107 11.9872 9.82777 11.706C9.34766 11.4219 8.97692 11.027 8.71555 10.5213C8.45419 10.0128 8.32351 9.4233 8.32351 8.75284C8.32351 8.0767 8.45419 7.4858 8.71555 6.98011C8.97692 6.47159 9.34766 6.0767 9.82777 5.79545C10.3107 5.51136 10.8832 5.36932 11.5451 5.36932C12.207 5.36932 12.7781 5.51136 13.2582 5.79545C13.7411 6.0767 14.1133 6.47159 14.3746 6.98011C14.636 7.4858 14.7667 8.0767 14.7667 8.75284C14.7667 9.4233 14.636 10.0128 14.3746 10.5213C14.1133 11.027 13.7411 11.4219 13.2582 11.706C12.7781 11.9872 12.207 12.1278 11.5451 12.1278ZM11.5536 10.7216C11.8548 10.7216 12.1062 10.6364 12.3079 10.4659C12.5096 10.2926 12.6616 10.0568 12.7638 9.75852C12.869 9.46023 12.9215 9.12074 12.9215 8.74006C12.9215 8.35938 12.869 8.01989 12.7638 7.72159C12.6616 7.4233 12.5096 7.1875 12.3079 7.0142C12.1062 6.84091 11.8548 6.75426 11.5536 6.75426C11.2496 6.75426 10.994 6.84091 10.7866 7.0142C10.582 7.1875 10.4272 7.4233 10.3221 7.72159C10.2198 8.01989 10.1687 8.35938 10.1687 8.74006C10.1687 9.12074 10.2198 9.46023 10.3221 9.75852C10.4272 10.0568 10.582 10.2926 10.7866 10.4659C10.994 10.6364 11.2496 10.7216 11.5536 10.7216ZM20.1445 9.21307V5.45455H21.9599V12H20.217V10.8111H20.1488C20.0011 11.1946 19.7553 11.5028 19.4116 11.7358C19.0707 11.9687 18.6545 12.0852 18.163 12.0852C17.7255 12.0852 17.3406 11.9858 17.0082 11.7869C16.6758 11.5881 16.4158 11.3054 16.2283 10.9389C16.0437 10.5724 15.9499 10.1335 15.9471 9.62216V5.45455H17.7624V9.2983C17.7653 9.68466 17.869 9.99006 18.0735 10.2145C18.2781 10.4389 18.5522 10.5511 18.896 10.5511C19.1147 10.5511 19.3192 10.5014 19.5096 10.402C19.6999 10.2997 19.8533 10.1491 19.9698 9.95028C20.0891 9.75142 20.1474 9.50568 20.1445 9.21307ZM25.2273 8.21591V12H23.4119V5.45455H25.142V6.60938H25.2188C25.3636 6.22869 25.6065 5.92756 25.9474 5.70597C26.2884 5.48153 26.7017 5.36932 27.1875 5.36932C27.642 5.36932 28.0384 5.46875 28.3764 5.66761C28.7145 5.86648 28.9773 6.15057 29.1648 6.51989C29.3523 6.88636 29.446 7.32386 29.446 7.83239V12H27.6307V8.15625C27.6335 7.75568 27.5313 7.44318 27.3239 7.21875C27.1165 6.99148 26.831 6.87784 26.4673 6.87784C26.223 6.87784 26.0071 6.9304 25.8196 7.03551C25.6349 7.14062 25.4901 7.29403 25.3849 7.49574C25.2827 7.6946 25.2301 7.93466 25.2273 8.21591ZM33.2887 12.1065C32.7915 12.1065 32.3413 11.9787 31.9379 11.723C31.5373 11.4645 31.2191 11.0852 30.9833 10.5852C30.7504 10.0824 30.6339 9.46591 30.6339 8.7358C30.6339 7.9858 30.7546 7.36222 30.9961 6.86506C31.2376 6.36506 31.5586 5.99148 31.9592 5.74432C32.3626 5.49432 32.8043 5.36932 33.2844 5.36932C33.6509 5.36932 33.9563 5.43182 34.2006 5.55682C34.4478 5.67898 34.6467 5.83239 34.7972 6.01705C34.9506 6.19886 35.0671 6.37784 35.1467 6.55398H35.2021V3.27273H37.0131V12H35.2234V10.9517H35.1467C35.0614 11.1335 34.9407 11.3139 34.7844 11.4929C34.631 11.669 34.4308 11.8153 34.1836 11.9318C33.9393 12.0483 33.641 12.1065 33.2887 12.1065ZM33.864 10.6619C34.1566 10.6619 34.4038 10.5824 34.6055 10.4233C34.81 10.2614 34.9663 10.0355 35.0742 9.74574C35.185 9.45597 35.2404 9.11648 35.2404 8.72727C35.2404 8.33807 35.1864 8 35.0785 7.71307C34.9705 7.42614 34.8143 7.20455 34.6097 7.0483C34.4052 6.89205 34.1566 6.81392 33.864 6.81392C33.5657 6.81392 33.3143 6.89489 33.1097 7.05682C32.9052 7.21875 32.7504 7.44318 32.6452 7.73011C32.5401 8.01705 32.4876 8.34943 32.4876 8.72727C32.4876 9.10795 32.5401 9.4446 32.6452 9.73722C32.7532 10.027 32.908 10.2543 33.1097 10.419C33.3143 10.581 33.5657 10.6619 33.864 10.6619ZM49.337 7.63636C49.337 8.58807 49.1566 9.39773 48.7958 10.0653C48.4379 10.733 47.9492 11.2429 47.3299 11.5952C46.7134 11.9446 46.0202 12.1193 45.2504 12.1193C44.4748 12.1193 43.7788 11.9432 43.1623 11.5909C42.5458 11.2386 42.0586 10.7287 41.7006 10.0611C41.3427 9.39347 41.1637 8.58523 41.1637 7.63636C41.1637 6.68466 41.3427 5.875 41.7006 5.20739C42.0586 4.53977 42.5458 4.03125 43.1623 3.68182C43.7788 3.32955 44.4748 3.15341 45.2504 3.15341C46.0202 3.15341 46.7134 3.32955 47.3299 3.68182C47.9492 4.03125 48.4379 4.53977 48.7958 5.20739C49.1566 5.875 49.337 6.68466 49.337 7.63636ZM47.4663 7.63636C47.4663 7.01989 47.3739 6.5 47.1893 6.0767C47.0075 5.65341 46.7504 5.33239 46.418 5.11364C46.0856 4.89489 45.6964 4.78551 45.2504 4.78551C44.8043 4.78551 44.4151 4.89489 44.0827 5.11364C43.7504 5.33239 43.4918 5.65341 43.3072 6.0767C43.1254 6.5 43.0344 7.01989 43.0344 7.63636C43.0344 8.25284 43.1254 8.77273 43.3072 9.19602C43.4918 9.61932 43.7504 9.94034 44.0827 10.1591C44.4151 10.3778 44.8043 10.4872 45.2504 10.4872C45.6964 10.4872 46.0856 10.3778 46.418 10.1591C46.7504 9.94034 47.0075 9.61932 47.1893 9.19602C47.3739 8.77273 47.4663 8.25284 47.4663 7.63636ZM54.1896 5.45455V6.81818H50.1499V5.45455H54.1896ZM51.0746 12V4.98153C51.0746 4.5071 51.1669 4.11364 51.3516 3.80114C51.5391 3.48864 51.7947 3.25426 52.1186 3.09801C52.4425 2.94176 52.8104 2.86364 53.2223 2.86364C53.5007 2.86364 53.755 2.88494 53.9851 2.92756C54.218 2.97017 54.3913 3.00852 54.505 3.04261L54.1811 4.40625C54.1101 4.38352 54.022 4.36222 53.9169 4.34233C53.8146 4.32244 53.7095 4.3125 53.6016 4.3125C53.3345 4.3125 53.1484 4.375 53.0433 4.5C52.9382 4.62216 52.8857 4.79403 52.8857 5.01562V12H51.0746Z" fill="#191919"/>
<path d="M6.88068 18.3636C6.82434 17.7969 6.5741 17.3461 6.12997 17.0114C5.68584 16.6766 5.12737 16.5092 4.45455 16.5092C3.98059 16.5092 3.56297 16.5904 3.2017 16.7528C2.84375 16.9152 2.56203 17.1406 2.35653 17.429C2.15436 17.714 2.05327 18.0388 2.05327 18.4034C2.05327 18.6719 2.11127 18.9072 2.22727 19.1094C2.34328 19.3116 2.49905 19.4856 2.6946 19.6314C2.89347 19.7739 3.11222 19.8965 3.35085 19.9993C3.5928 20.102 3.83641 20.1882 4.08168 20.2578L5.15554 20.5661C5.48035 20.6555 5.80516 20.7699 6.12997 20.9091C6.45478 21.0483 6.75142 21.224 7.01989 21.4361C7.29167 21.6449 7.50876 21.9018 7.67117 22.2067C7.83688 22.5083 7.91974 22.8712 7.91974 23.2955C7.91974 23.839 7.77888 24.3279 7.49716 24.7621C7.21544 25.1963 6.81108 25.541 6.28409 25.7962C5.7571 26.0481 5.12571 26.174 4.38991 26.174C3.69721 26.174 3.09564 26.0597 2.58523 25.831C2.07481 25.599 1.67377 25.2791 1.3821 24.8714C1.09044 24.4638 0.926373 23.9915 0.889915 23.4545H1.84446C1.8776 23.8556 2.01018 24.1953 2.24219 24.4737C2.4742 24.7521 2.7758 24.9643 3.14702 25.1101C3.51823 25.2526 3.93253 25.3239 4.38991 25.3239C4.89702 25.3239 5.34777 25.2393 5.74219 25.0703C6.13991 24.898 6.45147 24.6593 6.67685 24.3544C6.90554 24.0462 7.01989 23.6882 7.01989 23.2805C7.01989 22.9358 6.9304 22.6475 6.75142 22.4155C6.57244 22.1802 6.32221 21.983 6.00071 21.8239C5.68253 21.6648 5.31297 21.5239 4.89205 21.4013L3.67401 21.0433C2.87524 20.8047 2.25545 20.4749 1.81463 20.054C1.37382 19.633 1.15341 19.0961 1.15341 18.4432C1.15341 17.8963 1.29924 17.4157 1.59091 17.0014C1.88589 16.5838 2.28362 16.259 2.78409 16.027C3.28788 15.7917 3.85298 15.674 4.4794 15.674C5.11245 15.674 5.67259 15.79 6.1598 16.022C6.64702 16.254 7.03314 16.5739 7.31818 16.9815C7.60653 17.3859 7.76065 17.8466 7.78054 18.3636H6.88068ZM11.103 26V18.3636H11.9929V26H11.103ZM11.5554 17.0511C11.3731 17.0511 11.2173 16.9898 11.088 16.8672C10.9588 16.7412 10.8941 16.5904 10.8941 16.4148C10.8941 16.2391 10.9588 16.09 11.088 15.9673C11.2173 15.8414 11.3731 15.7784 11.5554 15.7784C11.7377 15.7784 11.8934 15.8414 12.0227 15.9673C12.152 16.09 12.2166 16.2391 12.2166 16.4148C12.2166 16.5904 12.152 16.7412 12.0227 16.8672C11.8934 16.9898 11.7377 17.0511 11.5554 17.0511ZM16.3382 15.8182V26H15.4532V15.8182H16.3382ZM22.8872 26.1591C22.1746 26.1591 21.5581 25.9934 21.0377 25.6619C20.5174 25.3272 20.1147 24.8648 19.8296 24.2749C19.5479 23.6816 19.4071 22.9988 19.4071 22.2266C19.4071 21.4576 19.5479 20.7749 19.8296 20.1783C20.1147 19.5784 20.5074 19.1094 21.0079 18.7713C21.5117 18.4299 22.0934 18.2592 22.7529 18.2592C23.1672 18.2592 23.5666 18.3355 23.9511 18.4879C24.3356 18.6371 24.6803 18.8674 24.9852 19.179C25.2934 19.4872 25.537 19.8767 25.716 20.3473C25.895 20.8146 25.9845 21.3681 25.9845 22.0078V22.4453H20.0186V21.6648H25.0796C25.0796 21.1742 24.9802 20.7334 24.7813 20.3423C24.5858 19.9479 24.3124 19.6364 23.961 19.4077C23.613 19.179 23.2103 19.0646 22.7529 19.0646C22.269 19.0646 21.8431 19.1939 21.4752 19.4524C21.1073 19.7109 20.819 20.0523 20.6102 20.4766C20.4047 20.9008 20.3003 21.3648 20.297 21.8686V22.3359C20.297 22.9425 20.4014 23.4728 20.6102 23.9268C20.8223 24.3776 21.1223 24.7273 21.51 24.9759C21.8978 25.2244 22.3569 25.3487 22.8872 25.3487C23.2484 25.3487 23.565 25.2924 23.8367 25.1797C24.1118 25.067 24.3422 24.9162 24.5278 24.7273C24.7167 24.535 24.8592 24.3246 24.9553 24.0959L25.7955 24.3693C25.6795 24.6908 25.489 24.9875 25.2238 25.2592C24.962 25.531 24.6339 25.7498 24.2394 25.9155C23.8483 26.0779 23.3976 26.1591 22.8872 26.1591ZM29.9395 21.2273V26H29.0546V18.3636H29.9147V19.5618H29.9942C30.1732 19.1707 30.4516 18.8575 30.8294 18.6222C31.2106 18.3835 31.6812 18.2642 32.2414 18.2642C32.7551 18.2642 33.2059 18.3719 33.5936 18.5874C33.9847 18.7995 34.288 19.1127 34.5034 19.527C34.7222 19.9413 34.8316 20.45 34.8316 21.0533V26H33.9466V21.108C33.9466 20.4815 33.771 19.986 33.4196 19.6214C33.0716 19.2569 32.6043 19.0746 32.0176 19.0746C31.6166 19.0746 31.2603 19.1607 30.9487 19.3331C30.6372 19.5054 30.3903 19.754 30.208 20.0788C30.029 20.4003 29.9395 20.7831 29.9395 21.2273ZM41.2649 26.1591C40.5822 26.1591 39.9872 25.9884 39.4801 25.647C38.9764 25.3056 38.5853 24.8383 38.3069 24.245C38.0284 23.6518 37.8892 22.9756 37.8892 22.2166C37.8892 21.451 38.0301 20.7699 38.3118 20.1733C38.5969 19.5767 38.9913 19.1094 39.4951 18.7713C39.9989 18.4299 40.5838 18.2592 41.25 18.2592C41.7605 18.2592 42.2228 18.3587 42.6371 18.5575C43.0514 18.7531 43.3928 19.0298 43.6613 19.3878C43.933 19.7424 44.1037 20.1567 44.1733 20.6307H43.2784C43.1856 20.1998 42.9619 19.8319 42.6073 19.527C42.256 19.2187 41.8085 19.0646 41.2649 19.0646C40.7777 19.0646 40.3469 19.1972 39.9723 19.4624C39.5978 19.7242 39.3045 20.0904 39.0924 20.5611C38.8836 21.0284 38.7792 21.5703 38.7792 22.1868C38.7792 22.8066 38.8819 23.3551 39.0874 23.8324C39.2929 24.3063 39.5812 24.6776 39.9524 24.946C40.327 25.2145 40.7645 25.3487 41.2649 25.3487C41.603 25.3487 41.9113 25.2857 42.1897 25.1598C42.4714 25.0305 42.7067 24.8482 42.8956 24.6129C43.0879 24.3776 43.2171 24.0975 43.2834 23.7727H44.1783C44.112 24.2334 43.948 24.6444 43.6861 25.0057C43.4276 25.3636 43.0912 25.6454 42.6769 25.8509C42.2659 26.0563 41.7953 26.1591 41.2649 26.1591ZM50.2823 26.1591C49.5697 26.1591 48.9533 25.9934 48.4329 25.6619C47.9125 25.3272 47.5098 24.8648 47.2248 24.2749C46.9431 23.6816 46.8022 22.9988 46.8022 22.2266C46.8022 21.4576 46.9431 20.7749 47.2248 20.1783C47.5098 19.5784 47.9026 19.1094 48.4031 18.7713C48.9069 18.4299 49.4885 18.2592 50.1481 18.2592C50.5624 18.2592 50.9618 18.3355 51.3462 18.4879C51.7307 18.6371 52.0754 18.8674 52.3803 19.179C52.6886 19.4872 52.9322 19.8767 53.1112 20.3473C53.2901 20.8146 53.3796 21.3681 53.3796 22.0078V22.4453H47.4137V21.6648H52.4748C52.4748 21.1742 52.3754 20.7334 52.1765 20.3423C51.981 19.9479 51.7075 19.6364 51.3562 19.4077C51.0082 19.179 50.6055 19.0646 50.1481 19.0646C49.6642 19.0646 49.2383 19.1939 48.8704 19.4524C48.5025 19.7109 48.2141 20.0523 48.0053 20.4766C47.7998 20.9008 47.6954 21.3648 47.6921 21.8686V22.3359C47.6921 22.9425 47.7965 23.4728 48.0053 23.9268C48.2175 24.3776 48.5174 24.7273 48.9052 24.9759C49.293 25.2244 49.752 25.3487 50.2823 25.3487C50.6436 25.3487 50.9601 25.2924 51.2319 25.1797C51.507 25.067 51.7373 24.9162 51.9229 24.7273C52.1119 24.535 52.2544 24.3246 52.3505 24.0959L53.1907 24.3693C53.0747 24.6908 52.8841 24.9875 52.619 25.2592C52.3571 25.531 52.029 25.7498 51.6346 25.9155C51.2435 26.0779 50.7927 26.1591 50.2823 26.1591Z" fill="#191919"/>
</svg>
